:SAMPLES-PER-SECOND 30
:FULLY-SPECIFIED
:DEGREES
428
root  -18.3599 38.816 -20.9842 176.023 -22.4615 178.918
RightUpLeg  -15.473 22.9441 -7.96726
RightLeg  21.6294 18.6292 7.66723
RightFoot  -5.14209 -0.313776 5.11373
RightToes  -1.33073e-015 0 -3.6325e-017
Spine  9.00763 -1.64215 4.2558
Spine1  6.71539 -1.57223 1.10183
HEad  -4.52102 -28.3054 6.76428
LeftShoulder1  0.41236 2.31851 -28.6662
LeftArm  0.864576 10.3277 -43.6659
LeftForeArm  15.4558 -17.678 -5.55407
LeftHand  -0.0522107 3.76974 2.46049
RightShoulder  -0.439739 -4.91457 24.2737
RightArm  24.8954 4.58733 51.1481
RightForeArm  -2.60543 32.3614 7.29139
RightHand  -1.1349 9.96297 -8.94246
LeftUpLeg  -5.5227 -18.7651 10.4608
LeftLeg  21.7113 -21.5952 -8.8974
LeftFoot  -16.5983 -0.154452 -5.44428
LeftToes  -1.03319e-009 7.52634e-011 -3.26162e-012
429
root  -19.0472 38.9049 -20.2784 177.088 -15.2505 177.802
RightUpLeg  -16.9445 25.0925 -10.2242
RightLeg  18.3101 23.6885 7.0222
RightFoot  -3.53184 -0.539063 7.51233
RightToes  -1.33073e-015 0 -3.6325e-017
Spine  9.8073 -1.6535 0.422097
Spine1  6.64195 -2.01586 1.49408
HEad  -5.71444 -29.0698 7.76177
LeftShoulder1  0.356116 2.48496 -28.8217
LeftArm  1.0466 11.0624 -42.5983
LeftForeArm  13.5648 -18.7834 -5.14448
LeftHand  -0.0600549 3.09397 2.21551
RightShoulder  -0.484612 -5.03776 24.755
RightArm  23.6209 5.41385 51.4752
RightForeArm  -1.16549 31.4394 6.96971
RightHand  -1.07031 9.3492 -8.78672
LeftUpLeg  -4.42062 -14.4201 7.56577
LeftLeg  20.3486 -16.4661 -6.3156
LeftFoot  -15.5804 -0.0125537 -2.8645
LeftToes  -1.03319e-009 7.52634e-011 -3.26162e-012
430
root  -19.7575 38.9789 -19.574 178.084 -8.77518 177.343
RightUpLeg  -17.6484 18.2781 -9.29667
RightLeg  14.6464 32.1894 4.6471
RightFoot  -1.53133 -0.873883 10.0176
RightToes  -1.33073e-015 0 -3.6325e-017
Spine  10.0062 -1.96167 -2.45421
Spine1  6.62835 -2.70417 2.07291
HEad  -6.628 -30.4403 8.84225
LeftShoulder1  0.425469 2.29044 -28.939
LeftArm  2.15678 11.4613 -41.159
LeftForeArm  10.9557 -19.0486 -5.22703
LeftHand  -0.077482 3.05568 3.2087
RightShoulder  -0.515684 -5.13411 24.8236
RightArm  22.0488 5.17805 51.4942
RightForeArm  -1.28068 30.6256 6.7667
RightHand  -1.05493 9.38974 -8.64436
LeftUpLeg  -5.07069 -11.4071 5.81762
LeftLeg  20.6021 -12.7928 -4.94063
LeftFoot  -14.8215 0.0336531 -1.84025
LeftToes  -1.03319e-009 7.52634e-011 -3.26162e-012
431
root  -20.4758 39.0793 -18.8886 178.631 -2.76392 177.425
RightUpLeg  -17.7814 4.55579 -5.98728
RightLeg  10.8252 32.8037 1.69649
RightFoot  -0.0557966 -1.17905 11.9284
RightToes  -1.33073e-015 0 -3.6325e-017
Spine  10.8955 -2.33022 -3.90158
Spine1  5.91555 -3.36745 2.88988
HEad  -6.80119 -31.6497 8.96974
LeftShoulder1  0.529629 1.99505 -28.9886
LeftArm  1.50363 11.8469 -39.962
LeftForeArm  10.994 -18.3992 -5.43274
LeftHand  -0.0601759 4.00686 3.43725
RightShoulder  -0.481091 -5.02538 24.7855
RightArm  18.8928 3.45459 51.2447
RightForeArm  -1.26946 29.4009 6.45929
RightHand  -1.03962 8.9143 -8.78335
LeftUpLeg  -5.59567 -5.62913 5.24794
LeftLeg  20.7318 -12.558 -4.87656
LeftFoot  -14.3885 0.0344176 -1.966
LeftToes  -1.03319e-009 7.52634e-011 -3.26162e-012
432
root  -21.0908 39.2489 -18.3175 179.053 3.49768 177.861
RightUpLeg  -18.029 -2.65709 -4.18334
RightLeg  8.37417 22.357 0.819491
RightFoot  -0.583985 -1.21449 12.798
RightToes  -1.33073e-015 0 -3.6325e-017
Spine  10.7604 -2.37871 -4.42567
Spine1  6.23002 -3.52104 3.12123
HEad  -6.74948 -32.7927 9.01745
LeftShoulder1  0.539225 1.9516 -28.6188
LeftArm  -0.204005 11.4008 -39.152
LeftForeArm  12.9553 -16.8355 -5.82199
LeftHand  -0.0579219 3.82829 2.94428
RightShoulder  -0.492737 -5.03605 25.2866
RightArm  16.8575 2.04373 50.4299
RightForeArm  -3.86602 26.806 5.95023
RightHand  -1.18639 9.24111 -9.76195
LeftUpLeg  -5.441 -0.718288 5.08041
LeftLeg  19.8263 -11.4267 -4.199
LeftFoot  -13.6457 0.0349501 -2.31042
LeftToes  -1.03319e-009 7.52634e-011 -3.26162e-012
433
root  -21.6547 39.4271 -17.8623 179.391 10.9738 178.374
RightUpLeg  -18.0929 -4.00809 -3.07705
RightLeg  8.38426 13.0662 0.911707
RightFoot  -0.18249 -1.10677 11.3197
RightToes  -1.33073e-015 0 -3.6325e-017
Spine  10.3424 -1.99662 -3.34984
Spine1  6.29159 -2.68397 1.66632
HEad  -6.11871 -33.3619 8.12834
LeftShoulder1  0.508528 2.01776 -28.1126
LeftArm  -2.80291 11.542 -38.955
LeftForeArm  16.3293 -15.4137 -5.94163
LeftHand  -0.0589139 3.76894 2.9206
RightShoulder  -0.593638 -5.32184 25.9121
RightArm  16.8742 1.24064 49.2241
RightForeArm  -6.96209 22.7232 5.33058
RightHand  -1.29598 9.11144 -10.7196
LeftUpLeg  -4.72099 3.45386 4.8266
LeftLeg  18.5471 -8.20741 -2.6696
LeftFoot  -12.7937 0.0498193 -2.12205
LeftToes  -1.03319e-009 7.52634e-011 -3.26162e-012
434
root  -22.1267 39.6112 -17.4826 179.497 18.1551 178.49
RightUpLeg  -18.4221 -2.81371 -2.9734
RightLeg  11.0635 10.2689 1.33747
RightFoot  -0.0652252 -0.712675 7.19766
RightToes  -1.33073e-015 0 -3.6325e-017
Spine  10.121 -1.66179 -3.4278
Spine1  6.22437 -2.30987 1.51803
HEad  -6.22618 -32.5453 7.65832
LeftShoulder1  0.385324 2.39662 -28.6553
LeftArm  -3.70908 12.2097 -38.2538
LeftForeArm  15.8844 -14.8867 -5.96297
LeftHand  -0.0481456 4.19732 2.69218
RightShoulder  -0.501541 -5.06713 25.2766
RightArm  16.083 0.72771 48.3328
RightForeArm  -7.69454 17.8531 5.62674
RightHand  -1.20664 8.49284 -10.3356
LeftUpLeg  -3.45301 7.29473 4.41945
LeftLeg  16.5402 -5.00896 -1.34024
LeftFoot  -11.755 0.0627061 -2.2404
LeftToes  -1.03319e-009 7.52634e-011 -3.26162e-012
435
root  -22.4971 39.7053 -17.1658 179.471 24.5855 178.271
RightUpLeg  -18.3042 -2.27328 -3.87541
RightLeg  13.9261 10.5436 2.43482
RightFoot  -1.61073 -0.647833 7.47269
RightToes  -1.33073e-015 0 -3.6325e-017
Spine  10.359 -1.66818 -4.09039
Spine1  5.30875 -2.3033 1.24235
HEad  -6.79532 -31.1289 7.5307
LeftShoulder1  0.402512 2.35027 -28.7704
LeftArm  -4.42686 13.8797 -37.9843
LeftForeArm  14.3721 -14.7963 -5.85136
LeftHand  -0.043259 4.44819 2.72078
RightShoulder  -0.499616 -5.08345 24.789
RightArm  13.9477 1.03591 47.0738
RightForeArm  -3.35588 12.5359 6.61366
RightHand  -0.764627 6.04407 -8.12035
LeftUpLeg  -2.47065 9.97463 4.06943
LeftLeg  15.1444 -1.38137 -0.674569
LeftFoot  -11.1566 0.0710378 -2.65243
LeftToes  -1.03319e-009 7.52634e-011 -3.26162e-012
